<?xml version="1.0" encoding="UTF-8"?>
<svg version="1.1" xmlns="http://www.w3.org/2000/svg" width="512" height="512">
<path d="M0 0 C1.17080521 1.08304833 2.33034989 2.18103845 3.42700195 3.33911133 C5.37294391 5.393782 7.38478545 7.37493429 9.3984375 9.36328125 C11.05735698 11.01295516 12.71620932 12.66269658 14.375 14.3125 C15.2 15.12912109 16.025 15.94574219 16.875 16.78710938 C21.22667345 21.12151428 25.40318873 25.52549926 29.40478516 30.18432617 C31.80957279 32.92145589 34.39238163 35.45799295 37 38 C40.26586257 41.2216274 43.46854499 44.43546579 46.4375 47.9375 C49.6000996 51.65957668 53.02970414 55.0686634 56.5 58.5 C60.55464806 62.50912858 64.43978149 66.55864499 68.12890625 70.91015625 C71.14150691 74.27496075 74.38572042 77.40545188 77.59790039 80.57836914 C80.93059062 83.88599763 84.05208116 87.29656607 87.09375 90.875 C89.62250461 93.69393956 92.30646246 96.33938576 95 99 C98.26382615 102.22398087 101.46830141 105.43517847 104.4375 108.9375 C107.6000996 112.65957668 111.02970414 116.0686634 114.5 119.5 C118.55464806 123.50912858 122.43978149 127.55864499 126.12890625 131.91015625 C128.6438345 134.71910534 131.31835322 137.35108617 134 140 C137.26382297 143.22398381 140.46830119 146.43517821 143.4375 149.9375 C146.6000996 153.65957668 150.02970414 157.0686634 153.5 160.5 C157.55464806 164.50912858 161.43978149 168.55864499 165.12890625 172.91015625 C167.6438345 175.71910534 170.31835322 178.35108617 173 181 C176.26382297 184.22398381 179.46830119 187.43517821 182.4375 190.9375 C185.6000996 194.65957668 189.02970414 198.0686634 192.5 201.5 C196.55464806 205.50912858 200.43978149 209.55864499 204.12890625 213.91015625 C206.6438345 216.71910534 209.31835322 219.35108617 212 222 C215.26382297 225.22398381 218.46830119 228.43517821 221.4375 231.9375 C224.6000996 235.65957668 228.02970414 239.0686634 231.5 242.5 C235.55464806 246.50912858 239.43978149 250.55864499 243.12890625 254.91015625 C245.6438345 257.71910534 248.31835322 260.35108617 251 263 C254.26382297 266.22398381 257.46830119 269.43517821 260.4375 272.9375 C263.6000996 276.65957668 267.02970414 280.0686634 270.5 283.5 C274.55464806 287.50912858 278.43978149 291.55864499 282.12890625 295.91015625 C284.64397168 298.71925856 287.32006695 301.34915658 290 304 C291.53577348 305.53601207 293.06988 307.07367009 294.60351562 308.61181641 C295.83116314 309.83216672 297.07818625 311.03296032 298.328125 312.23046875 C301.64280006 315.60577811 303.42866895 317.92633052 303.6875 322.75 C303.42947882 325.86775588 303.07647113 326.89452258 301.1875 329.5 C297.11551929 332.29221534 293.70972083 332.11110759 288.89321899 332.07746887 C288.16478865 332.07394006 287.43635831 332.07041125 286.68585432 332.0667755 C285.08714529 332.05843584 283.48844719 332.04776209 281.88976669 332.03508186 C279.28788782 332.01446147 276.686033 331.99968311 274.08410645 331.98648071 C271.28061215 331.97220041 268.4771251 331.95753699 265.6736424 331.94112074 C258.71189159 331.90076361 251.75028072 331.88002295 244.78842163 331.8712616 C243.77790194 331.86997798 242.76738225 331.86869437 241.72624075 331.86737186 C237.55579442 331.86249086 233.38534777 331.85831496 229.21490026 331.85458529 C217.38296488 331.84329571 205.55183567 331.81263632 193.72021484 331.72241211 C184.32227197 331.6508719 174.92527918 331.62198023 165.52707136 331.64257544 C160.55657678 331.65188841 155.58820281 331.64010128 150.61806107 331.57660866 C145.93359388 331.51726898 141.25242144 331.5149157 136.56777954 331.55459976 C134.85740504 331.55928596 133.14682531 331.54379716 131.43687057 331.50561714 C123.14335804 331.33149311 116.86500996 331.52583355 110.40935266 337.17052144 C108.30537928 339.21268388 106.32549661 341.33914514 104.37799144 343.53011739 C102.26137042 345.78788499 99.86989659 347.65809632 97.4375 349.5625 C93.48505895 352.73477852 89.70861688 356.04838064 86 359.5 C82.29138312 362.95161936 78.51494105 366.26522148 74.5625 369.4375 C70.37762693 372.80346265 66.41685602 376.33176017 62.5 380 C57.73908666 384.45872195 52.83532437 388.63797624 47.74609375 392.72265625 C44.73681042 395.2182639 41.86059714 397.83763481 39 400.5 C35.29138312 403.95161936 31.51494105 407.26522148 27.5625 410.4375 C23.35367008 413.82154481 19.37704138 417.374896 15.4375 421.0625 C0.8093881 434.6440548 0.8093881 434.6440548 -4.8125 435.75 C-8.52104904 434.87740023 -10.35507936 433.72271242 -13 431 C-14.16808075 427.49575774 -14.12781932 424.75418646 -14.13142776 421.05429268 C-14.1334804 420.33983543 -14.13553303 419.62537819 -14.13764787 418.88927072 C-14.14333676 416.47687346 -14.1418583 414.06453295 -14.14044189 411.65213013 C-14.14302444 409.912438 -14.14603729 408.17274647 -14.1494453 406.43305576 C-14.15753139 401.63801976 -14.15930576 396.84299872 -14.16004276 392.04795671 C-14.1618905 386.88221728 -14.16943636 381.71648566 -14.17617798 376.55075073 C-14.1897727 365.24930125 -14.19578764 353.94785532 -14.20018864 342.64639902 C-14.20294883 335.59401658 -14.20718574 328.54163551 -14.21169281 321.489254 C-14.22388639 301.97509154 -14.2341859 282.46093018 -14.2375679 262.94676399 C-14.23778747 261.69729522 -14.23800703 260.44782644 -14.23823325 259.16049498 C-14.23845153 257.90798852 -14.23866981 256.65548207 -14.2388947 255.36502087 C-14.23933817 252.82684334 -14.23978474 250.28866581 -14.24023438 247.75048828 C-14.2404558 246.4914569 -14.24067723 245.23242553 -14.24090537 243.93524168 C-14.24485532 223.52396973 -14.26231494 203.11273345 -14.2855939 182.70147528 C-14.3092842 161.76109494 -14.32176867 140.82073251 -14.32293582 119.88033855 C-14.32385383 108.1167506 -14.32963778 96.35320912 -14.34775543 84.58963394 C-14.36312504 74.574844 -14.36829546 64.56011489 -14.36001733 54.5453154 C-14.35609982 49.43285657 -14.35709393 44.32052036 -14.37107468 39.20807648 C-14.38374766 34.53122701 -14.38267458 29.85459314 -14.37048396 25.17774425 C-14.36851547 23.48259937 -14.37165814 21.78743955 -14.38032833 20.09231569 C-14.39134403 17.79374253 -14.38398807 15.4959406 -14.3719368 13.1973896 C-14.37253389 11.91897859 -14.37313097 10.64056757 -14.37374616 9.32341683 C-13.97087842 5.74104578 -13.13194941 3.87117798 -11 1 C-7.43954779 -1.79749817 -4.21263041 -1.10858695 0 0 Z " fill="#8491C8" transform="translate(111,39)"/>
<path d="M0 0 C0.66 0.33 1.32 0.66 2 1 C2.62589928 9.13669065 2.62589928 9.13669065 0.1875 12.5 C-3.88448071 15.29221534 -7.29027917 15.11110759 -12.10678101 15.07746887 C-12.83521135 15.07394006 -13.56364169 15.07041125 -14.31414568 15.0667755 C-15.91285471 15.05843584 -17.51155281 15.04776209 -19.11023331 15.03508186 C-21.71211218 15.01446147 -24.313967 14.99968311 -26.91589355 14.98648071 C-29.71938785 14.97220041 -32.5228749 14.95753699 -35.3263576 14.94112074 C-42.28810841 14.90076361 -49.24971928 14.88002295 -56.21157837 14.8712616 C-57.22209806 14.86997798 -58.23261775 14.86869437 -59.27375925 14.86737186 C-63.44420558 14.86249086 -67.61465223 14.85831496 -71.78509974 14.85458529 C-83.61703512 14.84329571 -95.44816433 14.81263632 -107.27978516 14.72241211 C-116.67772803 14.6508719 -126.07472082 14.62198023 -135.47292864 14.64257544 C-140.44342322 14.65188841 -145.41179719 14.64010128 -150.38193893 14.57660866 C-155.06640612 14.51726898 -159.74757856 14.5149157 -164.43222046 14.55459976 C-166.14259496 14.55928596 -167.85317469 14.54379716 -169.56312943 14.50561714 C-177.85664196 14.33149311 -184.13499004 14.52583355 -190.59064734 20.17052144 C-192.69462072 22.21268388 -194.67450339 24.33914514 -196.62200856 26.53011739 C-198.73862958 28.78788499 -201.13010341 30.65809632 -203.5625 32.5625 C-207.51494105 35.73477852 -211.29138312 39.04838064 -215 42.5 C-218.70861688 45.95161936 -222.48505895 49.26522148 -226.4375 52.4375 C-230.62237307 55.80346265 -234.58314398 59.33176017 -238.5 63 C-243.26091334 67.45872195 -248.16467563 71.63797624 -253.25390625 75.72265625 C-256.26318958 78.2182639 -259.13940286 80.83763481 -262 83.5 C-265.70861688 86.95161936 -269.48505895 90.26522148 -273.4375 93.4375 C-277.64632992 96.82154481 -281.62295862 100.374896 -285.5625 104.0625 C-300.1906119 117.6440548 -300.1906119 117.6440548 -305.8125 118.75 C-309.52104904 117.87740023 -311.35507936 116.72271242 -314 114 C-315.09506492 110.71480525 -315.09960608 108.26336585 -315.0625 104.8125 C-315.04896484 103.18248047 -315.04896484 103.18248047 -315.03515625 101.51953125 C-315.02355469 100.68808594 -315.01195312 99.85664063 -315 99 C-314.34 99.99 -313.68 100.98 -313 102 C-310.6680522 105.0228953 -309.61818562 105.91297387 -305.78125 106.453125 C-300.80045215 105.85625253 -298.74488402 103.91479533 -295.1875 100.5625 C-294.2752063 99.742052 -294.2752063 99.742052 -293.34448242 98.9050293 C-291.5484613 97.28513045 -289.77317088 95.64482903 -288 94 C-286.27286965 92.43524943 -284.54395242 90.87246671 -282.8125 89.3125 C-282.02101563 88.59320313 -281.22953125 87.87390625 -280.4140625 87.1328125 C-277.89474074 84.90700396 -275.30727749 82.7938917 -272.6875 80.6875 C-267.87414563 76.79744069 -263.3523855 72.67128166 -258.83886719 68.44433594 C-254.62606859 64.52121407 -250.23604648 60.88103586 -245.74609375 57.27734375 C-242.73681042 54.7817361 -239.86059714 52.16236519 -237 49.5 C-233.29138312 46.04838064 -229.51494105 42.73477852 -225.5625 39.5625 C-221.37762447 36.19653536 -217.41687569 32.66822171 -213.5 29 C-208.76659039 24.56743384 -203.92802818 20.36739293 -198.81132603 16.37429905 C-195.9693137 14.0852617 -195.9693137 14.0852617 -193.69464779 11.42671871 C-188.60959256 5.90343009 -184.39047562 3.1244549 -176.83265686 2.77967834 C-173.61804158 2.70607254 -170.41387802 2.75772621 -167.19946289 2.82055664 C-165.42109144 2.81842274 -163.64272065 2.81184028 -161.86437988 2.80117798 C-157.06445534 2.78447468 -152.26679801 2.8284512 -147.46722722 2.88292623 C-142.43626852 2.92867339 -137.40548436 2.91516327 -132.37437439 2.90733337 C-122.85577919 2.90090249 -113.33808413 2.94263247 -103.81970829 3.00405258 C-86.75464609 3.11236205 -69.68931121 3.13391336 -52.62394518 3.14459509 C-46.63617404 3.15019843 -40.64889191 3.17546881 -34.6612674 3.21732819 C-30.94414653 3.24112526 -27.2270467 3.2532293 -23.50986481 3.26279068 C-21.78445617 3.26997642 -20.05906035 3.28240336 -18.3337307 3.30040932 C-15.98179718 3.32441492 -13.63049692 3.33012748 -11.27845764 3.33143616 C-9.96167558 3.33981538 -8.64489351 3.3481946 -7.28820896 3.35682774 C-3.83988534 2.98262478 -2.46980553 2.36460772 0 0 Z " fill="#5D6CA2" transform="translate(412,356)"/>
</svg>
