<?xml version="1.0" encoding="UTF-8"?>
<svg version="1.1" xmlns="http://www.w3.org/2000/svg" width="512" height="512">
<path d="M0 0 C1.23620087 -0.00571014 2.47240173 -0.01142029 3.74606323 -0.01730347 C5.1031188 -0.0185486 6.46017447 -0.01967374 7.81723022 -0.02069092 C9.25675584 -0.02532403 10.69628023 -0.03034935 12.13580322 -0.03573608 C16.03695524 -0.0488167 19.93809007 -0.05529682 23.83926058 -0.05974674 C26.28134546 -0.06268517 28.72342573 -0.06679146 31.16550827 -0.07125092 C38.82001841 -0.08491592 46.47451792 -0.09458682 54.12903941 -0.09845281 C62.9390658 -0.10292787 71.74893662 -0.12045424 80.55891573 -0.1494534 C87.38549792 -0.17113699 94.21203655 -0.18116068 101.03865278 -0.18249393 C105.10789763 -0.18353741 109.17699605 -0.18934684 113.24620438 -0.20731354 C117.07942156 -0.22390966 120.91238402 -0.22589443 124.74562454 -0.21717453 C126.14352099 -0.21641022 127.54143179 -0.22066577 128.93929291 -0.23063278 C146.59859514 -0.34904555 162.58119213 4.16742488 175.49447632 16.69903564 C189.5442408 31.97051878 192.81597369 47.85691067 193.59432983 67.94952393 C193.66129198 69.5278303 193.7289486 71.10610733 193.79724121 72.68435669 C193.97984018 76.9494311 194.15277553 81.21484792 194.32393003 85.48039484 C194.50596028 89.9750529 194.69700107 94.46932825 194.88703918 98.96365356 C195.24625239 107.49097261 195.59745352 116.01860187 195.94574445 124.54637325 C196.3387652 134.1600075 196.74062339 143.77326552 197.14329445 153.38649964 C197.83885854 169.99648186 198.52898602 186.6066828 199.20842838 203.21733284 C199.48505947 209.97484602 199.76426781 216.73218162 200.05718994 223.48901367 C200.10452994 224.58962568 200.15186995 225.69023769 200.20064449 226.82420158 C200.28527826 228.78363296 200.37122817 230.74300828 200.45897007 232.70230293 C200.79533858 240.51789335 200.84409509 248.31855159 200.74057007 256.14044189 C202.68963257 256.48075439 202.68963257 256.48075439 204.67807007 256.82794189 C212.37077867 258.54820114 218.53330784 262.20994881 223.74057007 268.14044189 C225.00900757 269.47075439 225.00900757 269.47075439 226.30307007 270.82794189 C233.65918928 279.78523533 233.97247652 291.03066427 234.03573608 302.04815674 C234.04717428 303.42879553 234.06749468 304.80939301 234.09725952 306.1897583 C234.40868345 320.67532053 232.08361318 332.40182346 221.92807007 343.03887939 C214.79384316 349.85666882 205.86338775 353.25260303 196.0074234 353.27466297 C194.61464133 353.28134974 194.61464133 353.28134974 193.19372225 353.28817159 C192.18216177 353.28798723 191.17060128 353.28780286 190.12838745 353.28761292 C189.04706275 353.2912896 187.96573806 353.29496629 186.85164595 353.29875439 C183.2215169 353.30978377 179.59141648 353.31363385 175.96127319 353.31744385 C173.36097116 353.32370911 170.76067003 353.33035597 168.16036987 353.33735657 C160.35216782 353.35709447 152.54396452 353.36718427 144.73574376 353.37608436 C141.05448526 353.38047207 137.3732282 353.38583766 133.69197083 353.39107323 C121.44704741 353.40808364 109.20212488 353.42257608 96.95719147 353.42982197 C93.7814687 353.43173172 90.60574594 353.43365207 87.43002319 353.43560791 C86.24612421 353.43633352 86.24612421 353.43633352 85.03830808 353.43707379 C72.26304058 353.4453677 59.48786691 353.47069462 46.71264035 353.50318859 C33.58280333 353.53631093 20.4530139 353.55427544 7.3231349 353.55746621 C-0.04318595 353.55962664 -7.40937002 353.56830642 -14.77565002 353.59392738 C-21.70974305 353.61799006 -28.64358681 353.62142766 -35.57771301 353.611166 C-38.11688047 353.61067133 -40.65606016 353.61697127 -43.19519043 353.63072205 C-75.10097418 353.79378237 -75.10097418 353.79378237 -88.15786743 341.32794189 C-97.55344034 331.49628755 -98.46336167 320.10710696 -98.49966431 307.12286377 C-98.50930516 305.04236864 -98.54033603 302.96289051 -98.57192993 300.88262939 C-98.67625645 287.8355749 -96.6869244 277.21068581 -87.75942993 267.39044189 C-86.93442993 266.64794189 -86.10942993 265.90544189 -85.25942993 265.14044189 C-84.51692993 264.45981689 -83.77442993 263.77919189 -83.00942993 263.07794189 C-77.45147804 259.16211215 -71.9419418 257.1903956 -65.25942993 256.14044189 C-65.26670074 255.18175076 -65.27397154 254.22305962 -65.28146267 253.23531723 C-65.33363342 243.21286435 -65.06472857 233.2315707 -64.63272095 223.21954346 C-64.56509564 221.59449418 -64.49776247 219.96943273 -64.43069458 218.34436035 C-64.24975399 213.98033786 -64.06472645 209.6164977 -63.87885785 205.25268269 C-63.68348198 200.64975348 -63.49182215 196.04666938 -63.29969788 191.44360352 C-62.97655536 183.71387475 -62.65096363 175.98425246 -62.32363892 168.25469971 C-61.90600756 158.39242773 -61.49216175 148.5300009 -61.07962132 138.6675148 C-60.72199648 130.1179736 -60.36289963 121.56849431 -60.00342822 113.01903057 C-59.92701414 111.20119007 -59.85064685 109.3833476 -59.77432752 107.56550312 C-59.36251052 97.75680037 -58.94793647 87.94824197 -58.51928586 78.14025855 C-58.33740724 73.97233848 -58.16398415 69.80416076 -57.9954834 65.63568115 C-57.91842046 63.85437308 -57.84100065 62.07308037 -57.76309204 60.29180908 C-57.7357602 59.55504063 -57.70842836 58.81827217 -57.68026829 58.0591774 C-56.84322811 39.92647267 -49.42361016 25.45873102 -36.25942993 13.14044189 C-25.84386964 4.89541804 -13.29347465 0.03694675 0 0 Z M-19.25942993 43.14044189 C-23.28038462 49.3514843 -24.35622239 54.99311121 -24.67666626 62.33282471 C-24.70948071 63.05898892 -24.74229515 63.78515314 -24.77610397 64.53332233 C-24.88517011 66.96991339 -24.9883153 69.40671856 -25.09146118 71.84356689 C-25.16851428 73.59398346 -25.24591046 75.34438495 -25.32362366 77.09477234 C-25.53417952 81.86297246 -25.73942886 86.63138765 -25.94352722 91.39986801 C-26.11502793 95.39421931 -26.28927457 99.38844891 -26.4635067 103.38268185 C-26.97378332 115.08382772 -27.47557684 126.78532788 -27.97506714 138.48693848 C-28.26085505 145.1799373 -28.54890208 151.87283802 -28.83706665 158.56573486 C-29.30927383 169.54004357 -29.77683216 180.51454379 -30.2409668 191.48919678 C-30.41888976 195.69603305 -30.59801431 199.90281547 -30.77813721 204.10955811 C-30.99118813 209.09018397 -31.20095154 214.0709383 -31.40828133 219.0518055 C-31.48457218 220.87317467 -31.561903 222.69450066 -31.64040947 224.51577568 C-31.74849626 227.02816335 -31.85255839 229.54068954 -31.95571899 232.05328369 C-31.9868469 232.75582905 -32.0179748 233.4583744 -32.05004597 234.18220901 C-32.34273616 241.51464591 -32.25942993 248.78000325 -32.25942993 256.14044189 C33.74057007 256.14044189 99.74057007 256.14044189 167.74057007 256.14044189 C167.77239412 244.59313473 167.77239412 244.59313473 167.48155212 233.07981873 C167.45367282 232.39366574 167.42579352 231.70751276 167.39706939 231.00056726 C167.30559647 228.76735575 167.20977252 226.53435546 167.11386108 224.30133057 C167.04625528 222.67318292 166.97892135 221.04502397 166.91183472 219.41685486 C166.73072259 215.04051908 166.54576632 210.66435377 166.35999799 206.28821349 C166.16482897 201.67632596 165.97305728 197.06429701 165.78083801 192.45228577 C165.45759096 184.70819298 165.13198371 176.96420241 164.80477905 169.22027588 C164.4284342 160.31303671 164.05508988 151.40567599 163.68353325 142.49823588 C163.28538612 132.9535736 162.88533166 123.40899201 162.48456836 113.86443925 C162.37037397 111.1423087 162.25649284 108.4201652 162.14267159 105.69801903 C161.96246932 101.39110253 161.78095113 97.08424324 161.59848785 92.77742195 C161.53237692 91.21274412 161.46665928 89.6480496 161.40140343 88.08333588 C161.19346603 83.10177001 160.97420208 78.12087025 160.74057007 73.14044189 C160.6851335 71.94810483 160.6851335 71.94810483 160.62857699 70.73168015 C160.51219877 68.28217603 160.38894928 65.83310979 160.2636261 63.38404846 C160.2282913 62.6348741 160.1929565 61.88569973 160.15655094 61.11382312 C159.63111281 51.241156 157.13146507 44.84839999 149.74057007 38.14044189 C144.2944589 34.20650773 139.53971647 33.01905366 132.92251587 33 C131.73376862 32.99428986 130.54502136 32.98857971 129.32025146 32.98269653 C127.36896835 32.98101974 127.36896835 32.98101974 125.37826538 32.97930908 C123.99165719 32.97467868 122.60505027 32.96965372 121.21844482 32.96426392 C117.45380226 32.95115836 113.68917753 32.94469844 109.92451572 32.94025326 C107.57058283 32.93731925 105.21665476 32.93321379 102.8627243 32.92874908 C95.49226951 32.91507833 88.12182581 32.9054099 80.75135922 32.90154719 C72.25369312 32.89706886 63.75618806 32.87952969 55.25857091 32.8505466 C48.68346939 32.82890205 42.10841308 32.81884142 35.53327632 32.81750607 C31.60944469 32.81645993 27.68576453 32.81059298 23.76197052 32.79268646 C20.06832112 32.77615793 16.37493627 32.77407327 12.68126297 32.78282547 C10.68848999 32.78395792 8.69572561 32.77027713 6.70300293 32.756073 C-4.15359831 32.80645694 -11.82554818 34.83295541 -19.25942993 43.14044189 Z " fill="#000000" transform="translate(188.25942993164063,111.85955810546875)"/>
<path d="M0 0 C4.43926647 4.66692116 5.31215581 8.47748682 5.2109375 14.72265625 C4.76890612 19.49495804 2.77118364 22.2323539 -0.5546875 25.54296875 C-4.34098795 28.62084241 -8.27953357 29.27186082 -13 30.0625 C-20.55287628 31.36493494 -26.13271034 33.35017466 -31.25 39.4375 C-31.96929687 40.27087891 -31.96929687 40.27087891 -32.703125 41.12109375 C-36.32734036 46.3718395 -36.88365293 52.4651587 -37.92578125 58.625 C-39.46152588 63.45003039 -42.40512388 65.71523868 -46.25 68.8125 C-50.91340296 70.82624219 -55.37348789 70.81847296 -60.21875 69.30859375 C-65.08067845 67.14068162 -67.41086124 64.77951645 -70 60 C-72.17360337 45.1523711 -67.70343611 31.05587076 -59 19 C-46.61976055 4.49309365 -18.87356585 -13.51225269 0 0 Z " fill="#000000" transform="translate(246,158)"/>
<path d="M0 0 C2.31252071 1.24245971 4.59539981 2.51217224 6.875 3.8125 C8.1758252 4.54484863 8.1758252 4.54484863 9.50292969 5.29199219 C12.46990128 6.97010732 15.42419814 8.668625 18.375 10.375 C19.34324707 10.92889404 20.31149414 11.48278809 21.30908203 12.0534668 C27.7342718 15.83275823 32.73698382 19.32944336 34.875 26.8125 C35.38132697 32.28083123 34.54352225 36.00915994 31.875 40.8125 C28.01182722 44.90788535 24.55713523 46.62559609 18.9375 47.25 C12.39457752 47.13447488 7.43647434 43.99587784 1.875 40.8125 C1.19244141 40.42674805 0.50988281 40.04099609 -0.19335938 39.64355469 C-5.22749901 36.79087556 -10.19835485 33.84689524 -15.125 30.8125 C-16.03507812 30.25304687 -16.94515625 29.69359375 -17.8828125 29.1171875 C-21.98070394 26.34997667 -24.37335316 23.76492725 -25.7890625 18.95703125 C-26.62221126 13.63844208 -25.8469951 9.34312961 -23.5625 4.5 C-16.90562005 -2.83963687 -8.84220116 -4.1930782 0 0 Z " fill="#000000" transform="translate(444.125,179.1875)"/>
<path d="M0 0 C7.5933064 5.39968455 12.01576394 15.00557258 16.625 22.875 C17.30498047 23.99519531 17.98496094 25.11539063 18.68554688 26.26953125 C22.46946772 32.73577286 25.33627976 38.35672828 24.8125 46 C23.27499071 51.21044816 21.18610638 54.74305908 16.8125 58 C11.0784023 60.19924238 5.68313198 60.66898762 -0.03344727 58.23120117 C-7.10971941 54.18658592 -11.11817075 44.25701717 -14.99389648 37.45288086 C-16.00994405 35.67005147 -17.03461683 33.89239189 -18.06054688 32.11523438 C-22.47189442 24.42286462 -25.19814412 18.99754001 -24.1875 10 C-19.2071548 0.0393096 -10.38618172 -3.25840995 0 0 Z " fill="#000000" transform="translate(100.1875,49)"/>
<path d="M0 0 C4.05897793 3.41323144 6.23926894 6.50791693 7.6875 11.625 C7.7662618 16.27194632 7.09219951 20.25841766 4.75 24.3125 C0.7727994 27.88123135 -3.2209498 30.62751846 -7.890625 33.265625 C-8.49888123 33.61131531 -9.10713745 33.95700562 -9.73382568 34.31317139 C-11.65274742 35.40193575 -13.57626357 36.4822703 -15.5 37.5625 C-16.80499382 38.3015427 -18.10968416 39.04112154 -19.4140625 39.78125 C-27.62534719 44.43264511 -32.63625485 47.24200575 -42.25 46.3125 C-46.51992595 45.01905528 -48.9407163 42.70901756 -51.6875 39.1875 C-54.18359704 34.15208345 -54.24883605 28.67282259 -52.66015625 23.328125 C-48.46910255 14.59837259 -36.56514457 10.07468456 -28.5625 5.5625 C-27.55638672 4.98628906 -26.55027344 4.41007813 -25.51367188 3.81640625 C-24.53591797 3.26339844 -23.55816406 2.71039063 -22.55078125 2.140625 C-21.23847534 1.3966748 -21.23847534 1.3966748 -19.8996582 0.63769531 C-12.67055366 -2.9778561 -7.21869412 -3.7481681 0 0 Z " fill="#000000" transform="translate(90.25,179.6875)"/>
<path d="M0 0 C4.67601141 4.12589242 7.669213 7.85541115 8.625 14.1875 C8.47550754 21.07661091 4.43271499 27.03360424 1.125 32.875 C0.42576416 34.11757568 0.42576416 34.11757568 -0.28759766 35.38525391 C-1.8180279 38.08116185 -3.37241151 40.76157803 -4.9375 43.4375 C-5.4315332 44.2944043 -5.92556641 45.15130859 -6.43457031 46.03417969 C-9.90668243 51.84554405 -13.19360994 56.64786998 -19.875 58.875 C-24.84360315 59.39666057 -28.73018979 59.4474051 -33.25 57.1875 C-37.31113825 53.60983059 -40.2820812 50.47754462 -41.18359375 45 C-41.58352425 38.40720629 -39.38745705 34.3091721 -36.01025391 28.78222656 C-34.61688994 26.4413751 -33.29985307 24.06300902 -31.98046875 21.6796875 C-30.92479537 19.786282 -29.86880246 17.89305462 -28.8125 16 C-28.3062207 15.08379883 -27.79994141 14.16759766 -27.27832031 13.22363281 C-21.08152205 2.26937069 -13.21167052 -5.16978412 0 0 Z " fill="#000000" transform="translate(431.875,49.125)"/>
<path d="M0 0 C1.99562683 0.55556992 3.99736475 1.08236362 6.00146484 1.60644531 C14.55370164 3.92000573 21.35315054 6.21296007 26.60693359 13.80175781 C28.14070538 18.40307318 28.51168191 23.14955273 26.92333984 27.80566406 C24.15046988 33.13279599 20.20532946 35.93562586 14.60693359 37.80175781 C9.42296066 38.08749793 4.88207574 37.34630655 -0.08447266 35.97363281 C-0.79280746 35.7833551 -1.50114227 35.59307739 -2.23094177 35.39703369 C-3.71872566 34.99454599 -5.20529787 34.58755471 -6.69067383 34.17626953 C-8.94907269 33.55354836 -11.2124536 32.95227297 -13.47705078 32.35253906 C-14.92987492 31.95668662 -16.38236137 31.55959229 -17.83447266 31.16113281 C-18.50338028 30.98491394 -19.1722879 30.80869507 -19.86146545 30.62713623 C-26.61516103 28.72184431 -31.39597541 25.5753337 -35.39306641 19.80175781 C-37.05333102 14.82096398 -36.99210066 10.49902152 -35.26806641 5.61425781 C-26.62873724 -7.34473594 -13.07476115 -3.65405338 0 0 Z " fill="#000000" transform="translate(62.39306640625,115.1982421875)"/>
<path d="M0 0 C4.73631154 4.49949596 6.7601878 7.666798 7.125 14.25 C6.91587903 19.35762131 6.07080031 22.83674101 2.56445312 26.6315918 C-4.28080143 32.4123348 -15.64895773 33.95024108 -24.125 36.1875 C-25.28773438 36.51169922 -26.45046875 36.83589844 -27.6484375 37.16992188 C-35.32062171 39.19645469 -41.79796871 40.46479168 -49.3125 37.125 C-52.3998973 34.65508216 -54.72919843 31.91660313 -56.5 28.375 C-57.20498166 21.73810127 -57.38975767 16.18439465 -53.1796875 10.77734375 C-47.4871208 6.02471249 -39.88886157 4.60462857 -32.88916016 2.73071289 C-30.89674005 2.19336322 -28.91160932 1.63341362 -26.92578125 1.07226562 C-8.551928 -3.970538 -8.551928 -3.970538 0 0 Z " fill="#000000" transform="translate(488.5,113.625)"/>
</svg>
