<?xml version="1.0" encoding="UTF-8"?>
<svg version="1.1" xmlns="http://www.w3.org/2000/svg" width="512" height="512">
<path d="M0 0 C0.92135742 0.16097168 1.84271484 0.32194336 2.79199219 0.48779297 C56.07416359 10.07416359 56.07416359 10.07416359 70 24 C70.12286377 24.64573975 70.24572754 25.29147949 70.37231445 25.95678711 C71.23736842 28.77267067 72.50384691 29.27166175 75.04296875 30.69140625 C75.86990234 31.16126953 76.69683594 31.63113281 77.54882812 32.11523438 C78.41958984 32.59283203 79.29035156 33.07042969 80.1875 33.5625 C81.46463867 34.28469727 81.46463867 34.28469727 82.76757812 35.02148438 C85.16664016 36.37037695 87.58124304 37.68686999 90 39 C91.06863281 39.60714844 92.13726562 40.21429688 93.23828125 40.83984375 C95.96205166 42.20671207 95.96205166 42.20671207 99 41.921875 C103.15351879 42.03003955 104.80071638 43.65466278 108 46.25 C108.55977539 46.70109131 109.11955078 47.15218262 109.69628906 47.61694336 C111.47737477 49.06265231 113.2387705 50.53020047 115 52 C116.11968109 52.91289606 117.23947146 53.8256581 118.359375 54.73828125 C131.75295014 65.80557325 144.52648837 78.10696499 155 92 C155.41378906 92.53737793 155.82757813 93.07475586 156.25390625 93.62841797 C189.67025217 137.091588 208.88767333 190.49870699 209.375 245.4375 C209.38893799 246.45634277 209.40287598 247.47518555 209.41723633 248.52490234 C209.41103271 249.46414551 209.4048291 250.40338867 209.3984375 251.37109375 C209.39505371 252.19536865 209.39166992 253.01964355 209.38818359 253.86889648 C208.90722648 256.50932078 207.86640315 257.14556098 206 259 C205.39455323 261.27028757 205.39455323 261.27028757 205.2265625 263.84765625 C205.07731323 265.32383423 205.07731323 265.32383423 204.92504883 266.82983398 C204.82603271 267.89661377 204.7270166 268.96339355 204.625 270.0625 C198.85179703 323.45979394 179.14119941 370.74931641 144.63671875 411.8125 C140.53184163 416.73535081 137.82806893 420.83026735 136 427 C135.01 427 134.02 427 133 427 C128.42381044 427.67323664 126.45178464 430.28058882 123.41015625 433.5625 C104.91221996 452.27029942 78.5374206 468.13758798 54.171875 477.69921875 C51.44028381 479.33522571 50.60959845 481.30403346 49 484 C45.5625 484.3125 45.5625 484.3125 42 484 C38.44165905 484 36.43597761 484.34314162 33.1328125 485.390625 C32.17600586 485.68622314 31.21919922 485.98182129 30.23339844 486.28637695 C28.69474121 486.76337036 28.69474121 486.76337036 27.125 487.25 C11.14239558 492.04212641 -4.89076242 495.19811263 -21.56933594 496.1418457 C-26.69020021 496.51517529 -29.07633042 497.46941207 -33 501 C-36.25 500.875 -36.25 500.875 -39 500 C-39.33 499.34 -39.66 498.68 -40 498 C-42.60218654 497.5941811 -42.60218654 497.5941811 -45.78125 497.5078125 C-47.61598877 497.41294556 -47.61598877 497.41294556 -49.48779297 497.31616211 C-50.14213318 497.28537567 -50.79647339 497.25458923 -51.47064209 497.22286987 C-64.41735669 496.59848848 -77.02794097 495.15106849 -89.8046875 492.90234375 C-97.88305816 491.03874871 -97.88305816 491.03874871 -105.75 492.125 C-106.86375 492.558125 -106.86375 492.558125 -108 493 C-110.3125 491.8125 -110.3125 491.8125 -112 490 C-112 489.01 -112 488.02 -112 487 C-113.92199219 486.61521484 -113.92199219 486.61521484 -115.8828125 486.22265625 C-121.06763619 485.06563683 -125.92684138 483.35205532 -130.875 481.4375 C-131.77541016 481.09323975 -132.67582031 480.74897949 -133.60351562 480.39428711 C-140.8614063 477.56480021 -147.89804626 474.3530502 -154.87060547 470.88256836 C-158.58058299 469.05121003 -161.84897623 467.53657758 -166 467 C-167.093125 466.814375 -168.18625 466.62875 -169.3125 466.4375 C-170.199375 466.293125 -171.08625 466.14875 -172 466 C-172.23074219 465.07703125 -172.46148437 464.1540625 -172.69921875 463.203125 C-174.22943214 459.43503196 -175.3185026 458.6939517 -178.8125 456.75 C-190.64851817 449.71320171 -203.26124104 440.38212371 -212.64453125 430.21875 C-214.95622392 428.14022518 -218.00264948 428.38148098 -221 428 C-221.66 427.34 -222.32 426.68 -223 426 C-222.896875 425.113125 -222.79375 424.22625 -222.6875 423.3125 C-223.09739276 418.96763676 -224.63806803 418.07735191 -227.75 415.22265625 C-235.35580529 407.70928263 -241.5258421 398.43905698 -247.65161133 389.70678711 C-251.70292129 383.20328766 -251.70292129 383.20328766 -257.6875 379 C-258.450625 378.67 -259.21375 378.34 -260 378 C-261.1807689 374.71071522 -261.1157177 373.34715311 -260 370 C-261.33644876 367.13810914 -261.33644876 367.13810914 -263.3125 363.875 C-271.53919409 349.21501263 -277.56824849 333.04743977 -281.8671875 316.81640625 C-283.21762826 313.45893111 -283.93357408 313.52421171 -287 312 C-288.16015625 309.19140625 -288.16015625 309.19140625 -289.0625 305.5625 C-289.22532471 304.90870361 -289.38814941 304.25490723 -289.5559082 303.58129883 C-291.56667469 295.15930724 -292.88403137 286.58163441 -294 278 C-294.09716309 277.28610107 -294.19432617 276.57220215 -294.29443359 275.83666992 C-299.99490503 228.00695132 -290.79023328 176.40043401 -268 134 C-266 132 -266 132 -263.62109375 131.28515625 C-260.03092871 129.52485178 -258.81801361 126.8593853 -257.0625 123.4375 C-256.38069582 122.16500532 -255.69578708 120.89416927 -255.0078125 119.625 C-254.67297852 119.00496094 -254.33814453 118.38492188 -253.99316406 117.74609375 C-252.22757936 114.64199792 -250.09584431 111.80104254 -247.93359375 108.96484375 C-246.68075485 106.32811586 -247.42138927 104.80538535 -248 102 C-239.4648625 80.85135881 -212.94952447 59.94186728 -195 47 C-193.89979678 46.17222493 -192.80085344 45.34277288 -191.703125 44.51171875 C-160.88324174 21.47734607 -123.81744818 6.50145132 -86 0 C-85.10877441 -0.16081055 -84.21754883 -0.32162109 -83.29931641 -0.48730469 C-56.31976597 -5.18993971 -26.91988168 -4.87735172 0 0 Z " fill="#E3F1DD" transform="translate(299,7)"/>
<path d="M0 0 C1.15048828 0.94166016 1.15048828 0.94166016 2.32421875 1.90234375 C30.84053258 25.85604737 42.2741418 61.04946564 46.70977783 96.71139526 C46.92249078 98.38878564 47.14295617 100.06519779 47.36785889 101.74099731 C49.57425126 118.24284136 50.49120724 134.4207686 50.375 151.0625 C50.37001495 152.772099 50.37001495 152.772099 50.3649292 154.51623535 C50.15958733 214.84041267 50.15958733 214.84041267 43 222 C40.4375 222.1875 40.4375 222.1875 38 222 C36.35836961 220.35836961 36.82884422 218.51204021 36.8125 216.25 C36.86130079 212.0319143 37.23597714 208.04777025 37.94140625 203.890625 C42.74661105 173.70358855 42.44072994 142.08142919 39.1875 111.75 C39.06347809 110.59011566 39.06347809 110.59011566 38.93695068 109.40679932 C35.36928527 76.84303128 28.9007308 43.86876235 6 19 C5.52046875 18.47809082 5.0409375 17.95618164 4.546875 17.41845703 C-8.96843405 2.87499473 -25.16491759 -7.9165593 -44 -14.3125 C-44.67442139 -14.54283936 -45.34884277 -14.77317871 -46.04370117 -15.01049805 C-57.88399257 -18.79522462 -69.57902512 -20.50809882 -81.97949219 -20.39111328 C-84.00003481 -20.37499972 -86.01857874 -20.39109508 -88.0390625 -20.41015625 C-100.62633328 -20.43207384 -112.65261004 -18.37367545 -124.4375 -13.875 C-125.22898437 -13.5764209 -126.02046875 -13.2778418 -126.8359375 -12.97021484 C-139.65620973 -7.9574884 -150.7101591 -1.15363763 -161 8 C-161.83917969 8.69609375 -162.67835938 9.3921875 -163.54296875 10.109375 C-183.87451305 27.38330721 -197.75839802 54.68431782 -201 81 C-201.20769671 85.76097493 -201.22792349 90.52057605 -201.24023438 95.28540039 C-201.24987113 97.53245054 -201.28092048 99.77855699 -201.3125 102.02539062 C-201.37223661 110.29492132 -200.67187576 117.72892952 -198.72485352 125.81713867 C-196.67726577 134.80817992 -196.81779829 144.07336467 -196.8125 153.25 C-196.80025391 154.38179687 -196.78800781 155.51359375 -196.77539062 156.6796875 C-196.76514065 162.515342 -196.98950627 167.50094204 -199 173 C-200.99954746 173.04254356 -203.00041636 173.04080783 -205 173 C-206.94513558 171.05486442 -206.20751782 167.36261273 -206.24609375 164.703125 C-206.27910243 163.17056872 -206.3123126 161.63801676 -206.34570312 160.10546875 C-206.39259337 157.69681669 -206.43686707 155.2881721 -206.47680664 152.87939453 C-206.66365535 142.13615323 -207.37342028 131.84427773 -209.56274414 121.28613281 C-211.13751375 113.50861186 -211.38619447 105.92568388 -211.375 98 C-211.37412384 97.31780396 -211.37324768 96.63560791 -211.37234497 95.93273926 C-211.32431399 84.56152955 -210.39948668 73.89921013 -207 63 C-206.63793457 61.82655029 -206.63793457 61.82655029 -206.26855469 60.62939453 C-195.47637071 26.73922183 -172.25594575 -0.27474393 -141 -17 C-95.1451319 -39.97921236 -39.04109312 -33.00899289 0 0 Z " fill="#555B63" transform="translate(339,158)"/>
<path d="M0 0 C0.67256836 0.32548828 1.34513672 0.65097656 2.03808594 0.98632812 C38.39076103 18.71687859 67.40422201 48.25063484 86 84 C86.34804688 84.66870117 86.69609375 85.33740234 87.0546875 86.02636719 C96.99815309 105.43668489 102.22645397 125.6018485 106 147 C106.20625 148.13953125 106.4125 149.2790625 106.625 150.453125 C107.15257348 154.03622824 107.12270108 157.38031819 107 161 C106 162 106 162 102.9375 162.0625 C101.968125 162.041875 100.99875 162.02125 100 162 C97.65345276 157.12246076 97.12594228 152.04137972 96.3125 146.75 C93.0862674 127.26311825 87.8345129 108.69062608 79 91 C78.68981934 90.35949707 78.37963867 89.71899414 78.06005859 89.05908203 C61.694606 55.40215706 34.06654564 28.1849623 1 11 C0.37222656 10.6704834 -0.25554687 10.3409668 -0.90234375 10.00146484 C-26.58948225 -3.29353679 -54.76615554 -9.4471445 -83.5625 -9.375 C-84.74113113 -9.37468277 -84.74113113 -9.37468277 -85.943573 -9.37435913 C-99.01621455 -9.33939801 -111.28025821 -8.14350411 -124 -5 C-125.60373912 -4.64390233 -127.20790651 -4.28972784 -128.8125 -3.9375 C-173.14552928 6.26771831 -212.1728893 36.48710621 -236.3125 74.5625 C-248.35183344 94.95617174 -257.47756331 116.86358286 -261.60546875 140.2421875 C-262 142 -262 142 -263 143 C-264.99958364 143.04080783 -267.00045254 143.04254356 -269 143 C-273.26597398 134.46805204 -266.77713426 119.38816333 -264.00683594 110.88671875 C-246.9961497 62.11505191 -211.78229018 21.79683324 -165.3125 -0.91650391 C-161.19797849 -2.84431709 -157.02306934 -4.60606691 -152.8125 -6.3125 C-152.04204346 -6.62590332 -151.27158691 -6.93930664 -150.4777832 -7.26220703 C-102.09345352 -26.20687185 -46.38394482 -22.96330221 0 0 Z " fill="#555B63" transform="translate(339,85)"/>
<path d="M0 0 C0.92135742 0.16097168 1.84271484 0.32194336 2.79199219 0.48779297 C56.07416359 10.07416359 56.07416359 10.07416359 70 24 C70.25 26.5 70.25 26.5 70 29 C69.34 29.66 68.68 30.32 68 31 C61.7979568 30.76671952 56.77074948 28.35385536 51.1875 25.8125 C44.35478432 22.79561262 37.53003861 19.97378273 30.4375 17.625 C29.76162842 17.39917236 29.08575684 17.17334473 28.3894043 16.94067383 C18.07909916 13.611993 7.64441542 11.45792658 -3.0625 9.875 C-4.15626953 9.70613281 -5.25003906 9.53726562 -6.37695312 9.36328125 C-19.12430166 7.43715006 -31.68356212 6.72738046 -44.5625 6.6875 C-45.37514313 6.68488159 -46.18778625 6.68226318 -47.02505493 6.67956543 C-61.66146938 6.67454233 -75.63750764 8.09376848 -90 11 C-91.58183835 11.29271106 -93.16385759 11.58444696 -94.74609375 11.875 C-128.77661949 18.45950058 -161.47499906 34.1491437 -189 55 C-189.64324219 55.48098145 -190.28648437 55.96196289 -190.94921875 56.45751953 C-208.97470155 70.05432768 -225.99048903 86.52671187 -238.57421875 105.35546875 C-240 107 -240 107 -243.1875 107.25 C-244.115625 107.1675 -245.04375 107.085 -246 107 C-247.1328125 104.74609375 -247.1328125 104.74609375 -248 102 C-246.78676897 98.57159996 -244.24431271 95.83122322 -242 93 C-241.22785156 92.02417969 -240.45570313 91.04835938 -239.66015625 90.04296875 C-226.62655221 74.07850215 -211.73052404 59.0629503 -195 47 C-193.89979678 46.17222493 -192.80085344 45.34277288 -191.703125 44.51171875 C-160.88324174 21.47734607 -123.81744818 6.50145132 -86 0 C-85.10877441 -0.16081055 -84.21754883 -0.32162109 -83.29931641 -0.48730469 C-56.31976597 -5.18993971 -26.91988168 -4.87735172 0 0 Z " fill="#535860" transform="translate(299,7)"/>
<path d="M0 0 C4.26926172 0.42289857 5.99527486 1.88711073 9.3125 4.578125 C9.87227539 5.02921631 10.43205078 5.48030762 11.00878906 5.94506836 C12.78987477 7.39077731 14.5512705 8.85832547 16.3125 10.328125 C17.43218109 11.24102106 18.55197146 12.1537831 19.671875 13.06640625 C33.06545014 24.13369825 45.83898837 36.43508999 56.3125 50.328125 C56.72628906 50.86550293 57.14007813 51.40288086 57.56640625 51.95654297 C90.98275217 95.419713 110.20017333 148.82683199 110.6875 203.765625 C110.70143799 204.78446777 110.71537598 205.80331055 110.72973633 206.85302734 C110.72353271 207.79227051 110.7173291 208.73151367 110.7109375 209.69921875 C110.70755371 210.52349365 110.70416992 211.34776855 110.70068359 212.19702148 C110.22850152 214.78927137 109.3172243 215.68273807 107.3125 217.328125 C102.4375 215.453125 102.4375 215.453125 101.3125 214.328125 C101.19006538 212.59925721 101.13263475 210.86573159 101.1015625 209.1328125 C99.77912202 153.24943501 83.21146946 98.91487983 47.3125 55.328125 C46.86471191 54.77882324 46.41692383 54.22952148 45.95556641 53.66357422 C34.09157108 39.18512876 21.0216682 25.6723709 5.74609375 14.7734375 C5.1442627 14.33491455 4.54243164 13.8963916 3.92236328 13.44458008 C2.75248108 12.59585136 1.57020094 11.76387233 0.37451172 10.9519043 C-1.23046875 9.78515625 -1.23046875 9.78515625 -3.6875 7.328125 C-4.11328125 4.08984375 -4.11328125 4.08984375 -3.6875 1.328125 C-2.6875 0.328125 -2.6875 0.328125 0 0 Z " fill="#525760" transform="translate(397.6875,48.671875)"/>
<path d="M0 0 C1.4540625 0.0309375 1.4540625 0.0309375 2.9375 0.0625 C5.93248625 7.89752133 7.1370916 15.6976863 8.125 24 C8.21088379 24.71402985 8.29676758 25.42805969 8.38525391 26.16372681 C12.26275594 59.22244379 9.71444649 91.45792176 2.41552734 123.93066406 C1.96322954 125.94775517 1.5374572 127.96903707 1.11328125 129.9921875 C-7.35285159 167.45769846 -26.77414304 202.85680929 -50.0625 233.0625 C-51.01877457 234.33552799 -51.9744765 235.60898627 -52.9296875 236.8828125 C-53.91074437 238.17241846 -54.89250468 239.46148961 -55.875 240.75 C-56.55937134 241.66954468 -56.55937134 241.66954468 -57.25756836 242.60766602 C-59.07393248 244.96174088 -60.50006497 246.80895147 -63.24609375 248.046875 C-65.91030151 248.06979292 -67.13093874 246.78710827 -69.0625 245.0625 C-68.55334834 240.77214847 -67.3375636 238.90558378 -64.3125 235.875 C-52.70303726 223.43628992 -43.50097794 208.77753178 -35.0625 194.0625 C-34.6387207 193.32483398 -34.21494141 192.58716797 -33.77832031 191.82714844 C-26.1968094 178.4531534 -20.48456314 164.42739937 -15.0625 150.0625 C-14.70969971 149.14364014 -14.35689941 148.22478027 -13.9934082 147.27807617 C-11.53421139 140.73870237 -9.64943743 134.16098873 -8 127.375 C-7.74250977 126.3233667 -7.48501953 125.2717334 -7.21972656 124.18823242 C-5.20647923 115.85775179 -3.29941381 107.54950463 -2.0625 99.0625 C-1.95953613 98.37446289 -1.85657227 97.68642578 -1.75048828 96.97753906 C2.14803553 69.37377333 1.95924825 38.75029723 -3.60131836 11.41357422 C-4.29092308 7.89801388 -4.18180754 4.64172615 -4.0625 1.0625 C-3.0625 0.0625 -3.0625 0.0625 0 0 Z " fill="#555B63" transform="translate(256.0625,251.9375)"/>
<path d="M0 0 C0.97259766 -0.01611328 1.94519531 -0.03222656 2.94726562 -0.04882812 C18.67397843 -0.05933361 34.24144643 7.20723824 45.53100586 18.03320312 C68.81769402 41.54159249 70.782502 78.10183963 70.6875 109.5 C70.69107158 110.83398531 70.69497611 112.16796978 70.69921875 113.50195312 C70.69728516 115.37850586 70.69728516 115.37850586 70.6953125 117.29296875 C70.69418457 118.42629639 70.69305664 119.55962402 70.69189453 120.72729492 C70.5625 123.3125 70.5625 123.3125 69.5625 124.3125 C67.125 124.5 67.125 124.5 64.5625 124.3125 C61.69748502 121.44748502 62.23357528 119.34711364 62.10546875 115.33203125 C62.04793473 113.85746798 61.98946195 112.38294112 61.93017578 110.90844727 C61.90151428 110.12865509 61.87285278 109.34886292 61.84332275 108.54544067 C61.33522541 95.36730962 60.32623639 82.39241324 58.1875 69.375 C57.99051514 68.14692627 57.79353027 66.91885254 57.59057617 65.65356445 C54.48250332 47.65392985 48.82995346 31.90986846 33.99609375 20.3046875 C19.98671422 10.8835327 3.70958079 6.77864632 -12.984375 9.99609375 C-27.79938606 14.26692828 -41.396228 22.84165118 -49.4375 36.3125 C-52.91792869 43.11943178 -55.89398432 50.10587224 -58.4375 57.3125 C-60.8125 57.4375 -60.8125 57.4375 -63.4375 57.3125 C-65.4375 55.3125 -65.4375 55.3125 -65.5546875 53.46484375 C-64.89546752 47.43617073 -63.23726966 42.67156832 -60.4375 37.3125 C-59.74527344 35.9203125 -59.74527344 35.9203125 -59.0390625 34.5 C-50.69976914 18.87907976 -37.15773579 7.96787387 -20.4375 2.3125 C-13.6193145 0.33617774 -7.07180499 -0.02333929 0 0 Z " fill="#545962" transform="translate(256.4375,189.6875)"/>
<path d="M0 0 C2.5625 0.1875 2.5625 0.1875 4.5625 2.1875 C6.65255617 11.43575323 6.88677457 20.87258672 6.8125 30.3125 C6.80573242 31.57441162 6.79896484 32.83632324 6.79199219 34.13647461 C6.60112697 51.57289991 4.42698524 68.19736666 0.5625 85.1875 C0.33820313 86.17621094 0.11390625 87.16492188 -0.1171875 88.18359375 C-10.36668852 128.73871816 -32.10862325 162.11389502 -60.4375 192.1875 C-61.13488281 192.96480469 -61.83226562 193.74210938 -62.55078125 194.54296875 C-63.17339844 195.08566406 -63.79601562 195.62835938 -64.4375 196.1875 C-67.6875 195.9375 -67.6875 195.9375 -70.4375 195.1875 C-71.4375 192.625 -71.4375 192.625 -71.4375 189.1875 C-69.78521623 187.27765434 -67.9125778 185.84342137 -65.9375 184.26953125 C-35.23306735 158.69849593 -13.37760259 113.13822432 -6.80233765 74.29986572 C-6.56183699 72.90739608 -6.31222156 71.51646562 -6.05288696 70.12738037 C-3.27168615 55.20716206 -3.10858991 40.6397877 -3.3125 25.5 C-3.34761169 22.00686795 -3.37827668 18.51376846 -3.40383911 15.02055359 C-3.42078953 12.86816025 -3.44390965 10.71580474 -3.47384644 8.56355286 C-3.48360504 7.60712387 -3.49336365 6.65069489 -3.50341797 5.6652832 C-3.51468719 4.82181839 -3.52595642 3.97835358 -3.53756714 3.10932922 C-3.38536871 0.18629785 -2.92306143 0.22485088 0 0 Z " fill="#555B63" transform="translate(197.4375,277.8125)"/>
<path d="M0 0 C2.5 0.25 2.5 0.25 4.5 2.25 C4.24042379 7.7597144 1.78024977 12.2491157 -0.5625 17.125 C-15.59706169 49.56402919 -21.73832969 83.25787611 -21.8125 118.8125 C-21.81801376 120.08149643 -21.81801376 120.08149643 -21.82363892 121.37612915 C-21.85683868 136.00018113 -20.71154665 150.0896373 -17.375 164.375 C-14.96737386 174.75682052 -14.96737386 174.75682052 -15.5 179.25 C-18.5 181.25 -18.5 181.25 -21.1875 180.875 C-21.950625 180.66875 -22.71375 180.4625 -23.5 180.25 C-25.91815537 172.03809166 -27.86846496 163.89702379 -29.1875 155.4375 C-29.36599487 154.29317505 -29.36599487 154.29317505 -29.5480957 153.12573242 C-29.88955997 150.83642006 -30.20151648 148.54529431 -30.5 146.25 C-30.59716309 145.53610107 -30.69432617 144.82220215 -30.79443359 144.08666992 C-36.49490503 96.25695132 -27.29023328 44.65043401 -4.5 2.25 C-2.5 0.25 -2.5 0.25 0 0 Z " fill="#52575F" transform="translate(35.5,138.75)"/>
<path d="M0 0 C4.55555556 0.55555556 4.55555556 0.55555556 6 2 C6.54776336 10.57532977 4.89284408 18.84931903 3.375 27.25 C3.23961823 28.00732422 3.10423645 28.76464844 2.9647522 29.54492188 C0.72963197 41.96061941 -2.03399169 54.01118426 -6 66 C-6.32339355 66.99870117 -6.64678711 67.99740234 -6.97998047 69.02636719 C-16.93168513 99.58204406 -30.15294021 128.30963124 -47.83056641 155.18066406 C-48.83393605 156.74164749 -49.76637563 158.34782535 -50.68359375 159.9609375 C-52 162 -52 162 -54.5 163 C-57 163 -57 163 -58.875 161.875 C-60 160 -60 160 -59.8359375 157.77734375 C-58.77527574 154.25336941 -56.87237675 151.63592705 -54.75 148.6875 C-39.66532632 126.88000674 -28.95874882 102.45887896 -19.96484375 77.63916016 C-19.17634876 75.48237098 -18.36612777 73.33829487 -17.53125 71.19921875 C-10.05668632 51.57848908 -6.52956784 30.64125134 -3.3828125 9.96484375 C-3.21523438 8.88332031 -3.04765625 7.80179687 -2.875 6.6875 C-2.74867188 5.80449219 -2.62234375 4.92148437 -2.4921875 4.01171875 C-2 2 -2 2 0 0 Z " fill="#555A62" transform="translate(319,345)"/>
<path d="M0 0 C4.55555556 0.55555556 4.55555556 0.55555556 6 2 C6.91927201 8.56575839 7.1981903 15.04857367 7.2734375 21.671875 C7.29243355 23.20004852 7.29243355 23.20004852 7.31181335 24.75909424 C7.71581684 65.34793926 3.58098287 103.91479616 -5.01171875 143.56640625 C-5.18241882 144.36518692 -5.3531189 145.16396759 -5.5289917 145.98695374 C-7.18366837 153.42268876 -7.18366837 153.42268876 -9 156 C-12.125 156.75 -12.125 156.75 -15 157 C-17.63986411 153.04020384 -16.90472398 151.61177251 -16 147 C-15.50131969 144.80833426 -14.9753692 142.62506916 -14.4387207 140.44238281 C-11.68017258 129.13287324 -9.67387473 117.7336226 -7.8125 106.25 C-7.6863028 105.48024841 -7.56010559 104.71049683 -7.43008423 103.91741943 C-2.91682801 76.26070363 -1.80639489 49.07992041 -2.09594727 21.07788086 C-2.12592051 17.96467531 -2.14380818 14.85158363 -2.16015625 11.73828125 C-2.17361588 10.78641434 -2.1870755 9.83454742 -2.20094299 8.85383606 C-2.20432175 7.9807933 -2.2077005 7.10775055 -2.21118164 6.20825195 C-2.22236778 5.05749931 -2.22236778 5.05749931 -2.23377991 3.88349915 C-2 2 -2 2 0 0 Z " fill="#545962" transform="translate(444,278)"/>
<path d="M0 0 C5.56818182 0.56818182 5.56818182 0.56818182 7 2 C7.33492461 4.93820228 7.61975793 7.86710489 7.875 10.8125 C8.44344779 17.06991053 9.15516341 23.24697656 10.21313477 29.44091797 C14.77334182 56.39128213 11.8414394 83.71990471 -4.18066406 106.69287109 C-10.01802262 114.74508273 -16.2918071 121.67961623 -24 128 C-26.4375 127.15234375 -26.4375 127.15234375 -29 126 C-30 123.5625 -30 123.5625 -30 121 C-28.14303693 118.85392891 -26.13201839 117.32297434 -23.875 115.5625 C-7.78336687 101.70675695 1.47845653 78.36588283 3.29296875 57.65625 C3.72942728 46.04881226 1.76066902 34.79151911 -0.22094727 23.39575195 C-2.89933181 7.82937573 -2.89933181 7.82937573 -2 2 C-1.34 1.34 -0.68 0.68 0 0 Z " fill="#545A62" transform="translate(68,259)"/>
<path d="M0 0 C2.5 0.25 2.5 0.25 4.5 2.25 C1.72262583 27.82532067 -23.06801834 52.26372242 -40.5 69.25 C-41.05558594 69.85972656 -41.61117187 70.46945312 -42.18359375 71.09765625 C-43.5 72.25 -43.5 72.25 -46.5625 72.5625 C-49.5 72.25 -49.5 72.25 -51.5 70.25 C-51.46230834 66.56878103 -50.55689537 65.31084394 -48.0234375 62.6015625 C-46.98320482 61.68213965 -45.93318115 60.77370744 -44.875 59.875 C-43.7700673 58.89669784 -42.66589604 57.91753499 -41.5625 56.9375 C-41.03011719 56.47085938 -40.49773437 56.00421875 -39.94921875 55.5234375 C-25.36698644 42.70993957 -15.43054257 26.01831554 -7.46850586 8.52099609 C-7.11022705 7.7367627 -6.75194824 6.9525293 -6.3828125 6.14453125 C-5.90932373 5.09036011 -5.90932373 5.09036011 -5.42626953 4.01489258 C-3.98400312 1.26683146 -3.1357435 0.31357435 0 0 Z " fill="#545A62" transform="translate(127.5,362.75)"/>
<path d="M0 0 C1.9375 0.8125 1.9375 0.8125 3.9375 2.8125 C2.77145431 14.73267192 -2.24324875 26.65515053 -6.25 37.875 C-6.4869458 38.54216034 -6.7238916 39.20932068 -6.96801758 39.896698 C-11.93064072 53.83611162 -17.31203111 67.62799045 -24.0625 80.8125 C-26.3725 80.8125 -28.6825 80.8125 -31.0625 80.8125 C-32.53169731 75.46625422 -31.32237806 72.43533876 -28.8125 67.75 C-24.753265 59.68867636 -21.47341212 51.38176214 -18.3125 42.9375 C-17.85327148 41.71409912 -17.39404297 40.49069824 -16.92089844 39.23022461 C-15.62591882 35.76085649 -14.3433796 32.28709345 -13.0625 28.8125 C-12.68488525 27.80670898 -12.30727051 26.80091797 -11.91821289 25.76464844 C-9.48847931 19.23512602 -7.70771345 12.77699926 -6.08984375 6 C-4.03771377 -0.36706489 -4.03771377 -0.36706489 0 0 Z " fill="#555B63" transform="translate(372.0625,410.1875)"/>
</svg>
